{
    "asset" : {
        "generator" : "Khronos glTF Blender I/O v1.4.40",
        "version" : "2.0"
    },
    "scene" : 0,
    "scenes" : [
        {
            "name" : "Scene",
            "nodes" : [
                0
            ]
        }
    ],
    "nodes" : [
        {
            "mesh" : 0,
            "name" : "butterfly",
            "scale" : [
                1,
                -1,
                1
            ]
        }
    ],
    "meshes" : [
        {
            "name" : "buffer",
            "primitives" : [
                {
                    "attributes" : {
                        "POSITION" : 0,
                        "NORMAL" : 1
                    },
                    "indices" : 2
                }
            ]
        }
    ],
    "accessors" : [
        {
            "bufferView" : 0,
            "componentType" : 5126,
            "count" : 1344,
            "max" : [
                0.7918760180473328,
                0.4863010048866272,
                0.5003160238265991
            ],
            "min" : [
                -0.7918760180473328,
                -0.36852699518203735,
                -0.5792329907417297
            ],
            "type" : "VEC3"
        },
        {
            "bufferView" : 1,
            "componentType" : 5126,
            "count" : 1344,
            "type" : "VEC3"
        },
        {
            "bufferView" : 2,
            "componentType" : 5123,
            "count" : 1344,
            "type" : "SCALAR"
        }
    ],
    "bufferViews" : [
        {
            "buffer" : 0,
            "byteLength" : 16128,
            "byteOffset" : 0
        },
        {
            "buffer" : 0,
            "byteLength" : 16128,
            "byteOffset" : 16128
        },
        {
            "buffer" : 0,
            "byteLength" : 2688,
            "byteOffset" : 32256
        }
    ],
    "buffers" : [
        {
            "byteLength" : 34944,
            "uri" : "butteryfly.bin"
        }
    ]
}
